<?xml version="1.0" standalone="no"?>
<!DOCTYPE svg PUBLIC "-//W3C//DTD SVG 20010904//EN"
 "http://www.w3.org/TR/2001/REC-SVG-20010904/DTD/svg10.dtd">
<svg version="1.0" xmlns="http://www.w3.org/2000/svg"
 width="1024.000000pt" height="1024.000000pt" viewBox="0 0 1024.000000 1024.000000"
 preserveAspectRatio="xMidYMid meet">

<g transform="translate(0.000000,1024.000000) scale(0.100000,-0.100000)"
fill="#000000" stroke="none">
<path d="M5930 7827 c-45 -16 -77 -65 -84 -130 -3 -29 -17 -302 -31 -607 -14
-305 -41 -888 -60 -1295 -19 -407 -44 -931 -55 -1165 -11 -234 -38 -801 -60
-1261 -28 -592 -36 -846 -29 -872 11 -41 74 -102 115 -111 26 -6 389 11 2459
115 437 22 640 35 662 44 42 18 71 66 77 129 3 28 10 302 16 609 10 539 10
559 -8 601 -23 51 -69 86 -123 93 -22 3 -438 0 -925 -7 -487 -7 -887 -10 -889
-8 -2 2 5 168 15 368 11 201 31 592 45 870 14 278 48 945 75 1482 27 538 47
991 44 1007 -8 38 -65 105 -101 119 -17 7 -203 15 -483 22 -554 12 -616 12
-660 -3z m893 -392 c-3 -9 -8 -14 -10 -11 -3 3 -2 9 2 15 9 16 15 13 8 -4z
m251 -1371 c23 -9 20 -31 -5 -39 -25 -8 -43 13 -27 32 12 15 11 15 32 7z
m-224 -323 c0 -5 -7 -12 -16 -15 -28 -11 -54 -6 -54 9 0 10 11 15 35 15 19 0
35 -4 35 -9z m-302 -388 c-2 -10 -10 -18 -18 -18 -8 0 -16 8 -18 18 -2 12 3
17 18 17 15 0 20 -5 18 -17z m-251 -1078 c32 -21 29 -39 -14 -75 -32 -26 -45
-30 -83 -28 -44 3 -45 4 -48 39 -3 31 2 41 29 64 35 29 71 29 116 0z m-36
-735 c5 0 9 -7 9 -15 0 -9 -9 -15 -25 -15 -19 0 -25 5 -25 21 0 15 4 19 16 15
9 -3 20 -6 25 -6z m529 -80 c0 -6 -11 -8 -27 -4 -40 10 -41 14 -5 14 18 0 32
-5 32 -10z m758 -12 c28 -28 -28 -50 -69 -27 -16 8 -18 13 -8 25 14 17 60 19
77 2z m-358 -113 c-7 -8 -21 -15 -32 -15 -17 0 -18 3 -8 15 7 8 21 15 32 15
17 0 18 -3 8 -15z m-144 -16 c3 -6 2 -15 -4 -21 -7 -7 -14 -3 -21 11 -10 17
-9 21 3 21 8 0 18 -5 22 -11z m329 0 c4 -6 5 -12 3 -14 -7 -7 -48 7 -48 16 0
13 37 11 45 -2z m-941 -25 c23 -9 19 -31 -6 -38 -27 -6 -43 7 -35 28 7 17 16
19 41 10z m184 -101 c-2 -17 -10 -29 -20 -31 -14 -3 -18 3 -18 27 0 25 4 31
21 31 16 0 20 -5 17 -27z m785 16 c48 -25 48 -50 2 -72 -45 -21 -79 -22 -100
-1 -25 26 -15 56 25 70 45 16 47 16 73 3z m-806 -95 c11 -29 -13 -37 -31 -10
-16 25 -16 26 4 26 11 0 23 -7 27 -16z m791 -121 c2 -8 -6 -13 -22 -13 -26 0
-40 12 -29 24 11 11 46 2 51 -11z m-1190 -12 c26 -16 -14 -34 -60 -26 -39 7
-40 9 -23 21 21 15 63 18 83 5z m2457 -50 c3 -5 1 -12 -5 -16 -5 -3 -10 1 -10
9 0 18 6 21 15 7z m-1935 -30 c0 -11 -9 -21 -22 -25 -35 -9 -38 -8 -38 19 0
21 5 25 30 25 23 0 30 -5 30 -19z m810 -41 c32 -26 16 -38 -51 -38 -55 0 -64
16 -27 42 29 21 48 20 78 -4z m-1415 0 c-3 -5 -12 -10 -18 -10 -7 0 -6 4 3 10
19 12 23 12 15 0z m780 -19 c17 -7 17 -8 -8 -13 -19 -4 -27 -1 -27 8 0 15 6
16 35 5z m-190 -31 c3 -5 1 -10 -4 -10 -6 0 -11 5 -11 10 0 6 2 10 4 10 3 0 8
-4 11 -10z"/>
<path d="M3195 7770 c-268 -45 -434 -79 -463 -94 -56 -29 -38 7 -279 -561
-359 -847 -656 -1598 -829 -2092 -153 -441 -381 -1183 -588 -1913 -157 -559
-151 -526 -113 -600 41 -82 13 -78 698 -94 552 -12 608 -12 654 3 67 22 84 55
134 266 103 437 131 549 138 556 12 10 1153 231 1166 226 8 -3 23 -143 45
-423 50 -622 48 -610 127 -645 42 -19 70 -19 679 -17 623 3 635 3 662 24 44
32 66 68 71 115 3 29 -32 244 -102 634 -109 607 -375 2097 -446 2492 -137 773
-318 1479 -436 1705 -130 248 -305 397 -508 433 -51 9 -146 14 -260 14 -150
-1 -209 -6 -350 -29z m-345 -290 c0 -11 -7 -20 -15 -20 -8 0 -15 9 -15 20 0
11 7 20 15 20 8 0 15 -9 15 -20z m940 -195 c0 -14 -4 -25 -10 -25 -5 0 -10 11
-10 25 0 14 5 25 10 25 6 0 10 -11 10 -25z m-48 -131 c-6 -31 -26 -26 -30 8
-3 22 0 26 16 21 14 -3 18 -11 14 -29z m105 -10 c21 -6 21 -6 2 -25 -27 -27
-49 -24 -49 6 0 26 9 29 47 19z m-994 -16 c-6 -7 -13 -20 -16 -28 -3 -9 -6 -3
-6 13 -1 19 4 27 15 27 12 0 14 -4 7 -12z m1150 -73 c-3 -9 2 -24 11 -34 9
-10 13 -21 9 -24 -10 -10 -121 -8 -127 2 -10 16 29 52 64 61 50 11 50 12 43
-5z m-54 -216 c29 -10 41 -32 23 -43 -11 -7 -82 13 -82 22 0 7 20 32 26 32 0
0 15 -5 33 -11z m-659 -49 c0 -5 -5 -10 -11 -10 -5 0 -7 5 -4 10 3 6 8 10 11
10 2 0 4 -4 4 -10z m140 -54 c0 -2 3 -11 6 -20 5 -13 -1 -16 -30 -16 -56 0
-47 33 12 39 6 0 12 -1 12 -3z m654 -184 c-7 -11 -24 -17 -45 -17 -46 0 -50
26 -7 47 29 14 35 14 48 2 11 -11 12 -19 4 -32z m-1748 -297 c3 -19 3 -47 -1
-62 l-7 -28 -19 24 c-21 26 -25 71 -7 89 19 19 27 14 34 -23z m569 -65 c3 -5
-3 -10 -14 -10 -12 0 -21 5 -21 10 0 6 6 10 14 10 8 0 18 -4 21 -10z m-555
-175 c0 -33 -4 -45 -15 -45 -11 0 -15 11 -15 38 0 21 3 42 7 45 16 16 23 4 23
-38z m918 -32 c6 -65 -81 -103 -107 -47 -22 49 12 85 74 81 26 -2 30 -6 33
-34z m872 27 c0 -5 -11 -10 -25 -10 -14 0 -25 5 -25 10 0 6 11 10 25 10 14 0
25 -4 25 -10z m24 -115 c4 -11 -1 -15 -19 -15 -16 0 -25 6 -25 15 0 8 9 15 19
15 10 0 21 -7 25 -15z m-774 -289 c28 -138 61 -327 75 -420 34 -244 68 -536
62 -542 -4 -4 -567 -23 -574 -19 -1 0 20 73 46 161 27 87 97 317 156 509 157
516 177 581 181 570 2 -5 26 -122 54 -259z m-200 217 c-1 -13 -29 -59 -30 -48
0 21 13 55 21 55 5 0 9 -3 9 -7z m-92 -162 c10 -6 4 -26 -27 -92 -23 -46 -45
-102 -51 -125 -6 -23 -27 -61 -50 -87 -34 -38 -40 -52 -40 -91 0 -26 -12 -76
-29 -118 -15 -40 -34 -91 -40 -113 -25 -82 -85 -231 -101 -250 -33 -40 -68
-112 -87 -180 -11 -38 -29 -88 -39 -110 -16 -34 -24 -40 -49 -40 -45 0 -44 37
3 137 21 46 47 119 57 163 14 60 30 95 62 140 60 83 76 120 132 302 33 109 59
174 83 209 20 30 43 82 54 124 15 61 25 78 58 106 43 37 45 38 64 25z m912
-166 c0 -8 -9 -15 -20 -15 -11 0 -20 7 -20 15 0 8 9 15 20 15 11 0 20 -7 20
-15z m150 -65 c13 -8 13 -10 -2 -10 -9 0 -20 5 -23 10 -8 13 5 13 25 0z m-333
-46 c-3 -3 -12 -4 -19 -1 -8 3 -5 6 6 6 11 1 17 -2 13 -5z m408 -254 c-3 -5
-12 -10 -18 -10 -7 0 -6 4 3 10 19 12 23 12 15 0z m-545 -25 c10 -12 9 -15 -8
-15 -11 0 -22 7 -26 15 -3 9 0 15 8 15 7 0 19 -7 26 -15z m269 -49 c33 -33 22
-66 -24 -66 -36 0 -48 15 -33 43 7 13 4 17 -12 17 -20 0 -27 20 -13 34 12 12
56 -4 82 -28z m265 25 c3 -5 -1 -12 -10 -15 -22 -9 -24 -8 -24 9 0 16 25 21
34 6z m-112 -23 c-11 -11 -32 -3 -32 12 0 4 9 6 21 3 13 -4 17 -9 11 -15z
m177 -62 l24 -13 -37 -13 c-47 -15 -86 -6 -86 20 0 16 7 20 38 20 20 -1 48 -7
61 -14z m-231 -100 c3 -13 -5 -16 -37 -16 -29 0 -41 4 -41 15 0 35 71 37 78 1z
m-350 -3 c-10 -2 -26 -2 -35 0 -10 3 -2 5 17 5 19 0 27 -2 18 -5z m634 -5 c5
-15 -67 -88 -88 -88 -16 0 -16 -1 1 -20 9 -10 34 -25 54 -31 82 -26 73 -49
-20 -49 l-56 0 -32 59 c-17 32 -31 66 -31 75 0 27 70 65 122 65 27 1 48 -4 50
-11z m-1872 -44 c0 -40 -16 -77 -31 -69 -10 7 -12 65 -3 89 12 31 34 18 34
-20z m1519 -6 c6 -17 4 -25 -8 -29 -23 -9 -51 8 -51 31 0 30 48 27 59 -2z
m100 -37 c9 -6 11 -18 7 -35 -7 -30 -26 -35 -26 -7 0 11 -3 26 -6 35 -7 18 4
20 25 7z m-135 -41 c51 0 57 -2 46 -15 -17 -21 -145 -21 -153 -1 -8 19 4 28
28 22 11 -3 46 -6 79 -6z m-127 -102 c-3 -8 -6 -5 -6 6 -1 11 2 17 5 13 3 -3
4 -12 1 -19z m103 -78 c0 -6 -7 -13 -15 -16 -20 -8 -48 3 -40 16 8 13 55 13
55 0z m295 -80 c3 -5 -1 -10 -9 -10 -9 0 -16 5 -16 10 0 6 4 10 9 10 6 0 13
-4 16 -10z m-122 -16 c27 -13 37 -27 50 -65 l15 -49 -39 0 c-37 0 -39 1 -39
33 0 38 -23 75 -54 87 -20 8 -19 9 6 9 15 1 43 -6 61 -15z m-323 -49 c0 -8 -4
-15 -10 -15 -5 0 -10 7 -10 15 0 8 5 15 10 15 6 0 10 -7 10 -15z m180 -100 c0
-8 -7 -15 -15 -15 -8 0 -15 7 -15 15 0 8 7 15 15 15 8 0 15 -7 15 -15z m-467
-82 c-7 -2 -19 -2 -25 0 -7 3 -2 5 12 5 14 0 19 -2 13 -5z m177 -93 c0 -5 -9
-10 -21 -10 -11 0 -17 5 -14 10 3 6 13 10 21 10 8 0 14 -4 14 -10z m336 -33
c10 -31 -38 -69 -74 -61 -45 11 -45 15 -7 54 40 41 69 43 81 7z m114 -217 c0
-5 -7 -10 -15 -10 -8 0 -15 5 -15 10 0 6 7 10 15 10 8 0 15 -4 15 -10z m-90
-42 c0 -30 0 -31 -20 -13 -11 10 -20 24 -20 32 0 7 9 13 20 13 16 0 20 -7 20
-32z m363 -16 c3 -16 17 -34 33 -42 l26 -15 -23 -6 c-56 -16 -97 -10 -118 17
-12 15 -21 30 -21 35 0 6 70 35 91 38 4 1 9 -12 12 -27z m-1773 -33 c0 -18 -5
-20 -42 -17 -30 2 -42 8 -44 21 -2 14 6 17 42 17 38 0 44 -3 44 -21z m-251
-60 c40 -17 50 -26 60 -58 18 -60 17 -61 -53 -61 -55 0 -69 4 -95 26 -51 42
-33 96 37 113 2 1 25 -8 51 -20z m1411 0 c0 -5 -4 -9 -10 -9 -5 0 -10 7 -10
16 0 8 5 12 10 9 6 -3 10 -10 10 -16z m860 1 c0 -5 -7 -10 -15 -10 -8 0 -15 5
-15 10 0 6 7 10 15 10 8 0 15 -4 15 -10z m-690 -30 c0 -5 -18 -10 -40 -10 -22
0 -40 5 -40 10 0 6 18 10 40 10 22 0 40 -4 40 -10z m618 -16 c37 -14 42 -19
42 -47 0 -24 -3 -28 -12 -19 -18 18 -56 14 -78 -8 -15 -15 -19 -31 -17 -62 3
-59 26 -61 88 -8 l49 41 10 -26 c14 -38 12 -72 -5 -79 -21 -8 -19 -29 7 -79
30 -59 38 -102 25 -142 -10 -33 -8 -38 21 -68 l31 -32 -20 -24 c-19 -23 -19
-24 7 -70 19 -34 33 -89 55 -216 36 -212 36 -205 0 -205 -35 0 -84 58 -79 94
1 13 -8 35 -25 55 -17 21 -27 44 -27 66 0 25 -9 42 -42 73 -41 40 -41 41 -39
107 l2 66 -69 -7 c-77 -7 -100 -1 -82 21 17 20 7 30 -55 55 -53 21 -55 24 -55
60 0 43 18 100 31 100 5 0 9 9 9 20 0 18 -10 25 -32 21 -11 -1 -10 13 3 46 12
32 26 43 56 43 12 0 34 5 49 11 l28 10 -32 26 c-22 17 -32 32 -30 47 1 12 -7
31 -20 44 -37 37 -9 69 83 98 42 13 55 12 123 -12z m-2753 -94 c3 -5 2 -10 -4
-10 -5 0 -13 5 -16 10 -3 6 -2 10 4 10 5 0 13 -4 16 -10z m335 -130 c0 -11 -4
-20 -10 -20 -5 0 -10 9 -10 20 0 11 5 20 10 20 6 0 10 -9 10 -20z m2090 -78
c0 -19 -23 -32 -37 -21 -20 17 -15 29 12 29 14 0 25 -4 25 -8z m-2272 -14 c14
-14 16 -44 3 -53 -16 -9 -61 17 -61 36 0 27 37 38 58 17z m1952 -13 c0 -9 -9
-15 -25 -15 -16 0 -25 6 -25 15 0 9 9 15 25 15 16 0 25 -6 25 -15z m-1908
-100 c14 -18 8 -25 -21 -31 -16 -4 -40 -17 -52 -30 -28 -30 -46 -30 -76 -2
-28 27 -29 38 -3 38 30 0 78 27 90 51 11 20 12 20 33 2 12 -10 25 -22 29 -28z
m2043 35 c4 -6 -5 -10 -19 -10 -14 0 -26 5 -26 10 0 6 9 10 19 10 11 0 23 -4
26 -10z m-87 -71 c38 -13 33 -29 -9 -29 -22 0 -29 5 -29 20 0 23 -2 23 38 9z
m-1713 -169 c0 -20 -32 -25 -51 -9 -14 12 -14 14 3 20 26 11 48 6 48 -11z
m-369 -55 c18 -13 16 -14 -25 -15 -37 0 -42 2 -31 15 16 19 31 19 56 0z m144
0 c10 -11 9 -18 -4 -30 -13 -13 -19 -14 -36 -3 -25 16 -25 24 -2 37 23 14 28
13 42 -4z m2058 -17 c20 -20 14 -28 -23 -28 -38 0 -46 13 -17 29 22 13 26 13
40 -1z m90 -349 c19 -60 2 -68 -41 -19 -21 22 -37 45 -37 50 0 6 15 10 33 10
29 0 33 -4 45 -41z"/>
</g>
</svg>
